<?xml version="1.0" standalone="no"?>
<!DOCTYPE svg PUBLIC "-//W3C//DTD SVG 20010904//EN"
 "http://www.w3.org/TR/2001/REC-SVG-20010904/DTD/svg10.dtd">
<svg version="1.0" xmlns="http://www.w3.org/2000/svg"
 width="881.000000pt" height="881.000000pt" viewBox="0 0 881.000000 881.000000"
 preserveAspectRatio="xMidYMid meet">
<metadata>
Created by potrace 1.11, written by Peter Selinger 2001-2013
</metadata>
<g transform="translate(0.000000,881.000000) scale(0.100000,-0.100000)"
fill="#000000" stroke="none">
<path d="M27 7887 l-24 -8 2 -3462 c0 -1904 4 -3469 9 -3478 7 -16 136 -17
1666 -17 1220 0 1663 3 1673 12 8 6 66 112 130 236 118 232 184 359 365 710
58 113 152 295 208 405 l102 200 1171 1 1171 1 14 -22 c8 -12 49 -88 91 -171
99 -192 220 -425 305 -589 37 -71 111 -215 165 -320 144 -281 227 -439 237
-451 11 -15 1407 -17 1425 -2 7 6 13 18 13 28 0 9 -114 244 -253 521 -140 277
-503 999 -807 1604 -304 605 -747 1487 -985 1960 -238 473 -656 1306 -930
1850 -274 545 -500 992 -502 995 -8 8 -5221 6 -5246 -3z m5511 -707 c153 -305
521 -1036 817 -1625 296 -588 721 -1434 945 -1880 823 -1635 1340 -2665 1340
-2667 0 -2 -287 -3 -637 -3 l-637 0 -29 55 c-16 30 -73 141 -127 245 -53 105
-124 242 -157 305 -33 63 -111 214 -173 335 -62 121 -125 243 -140 270 -15 28
-58 111 -95 185 -37 74 -75 143 -83 153 -14 16 -85 17 -1226 17 -666 0 -1216
-4 -1222 -8 -12 -7 -67 -110 -242 -452 -57 -113 -135 -263 -172 -335 -37 -71
-120 -233 -185 -360 -65 -126 -140 -270 -166 -320 l-48 -90 -680 0 c-375 0
-681 2 -681 4 0 5 23 52 280 576 146 296 250 510 510 1040 194 396 377 769
570 1160 243 492 581 1184 675 1380 48 100 130 268 573 1165 127 258 275 560
587 1197 60 123 112 220 116 215 4 -4 133 -257 287 -562z m-1153 -972 c3 -3
-74 -169 -173 -369 -98 -200 -213 -437 -257 -526 l-79 -162 -1088 2 -1088 2 0
527 c0 342 4 528 10 530 17 5 2670 2 2675 -4z m-1285 -2633 c0 -2 -59 -124
-131 -272 -72 -147 -182 -373 -245 -500 l-113 -233 -456 0 -455 0 0 504 0 505
700 -1 c385 0 700 -2 700 -3z"/>
<path d="M5219 4989 c-34 -68 -101 -200 -149 -294 -48 -93 -169 -332 -270
-530 -100 -198 -209 -411 -242 -474 -33 -62 -57 -116 -54 -119 5 -4 1530 -7
1569 -3 4 1 -32 79 -81 174 -49 94 -127 244 -172 332 -45 88 -115 223 -155
300 -40 77 -114 221 -165 320 -109 212 -211 409 -216 414 -1 2 -31 -52 -65
-120z m151 -224 c45 -88 121 -234 167 -325 167 -323 267 -517 334 -647 38 -72
69 -134 69 -137 0 -3 -295 -6 -655 -6 l-655 0 84 163 c46 89 157 306 246 482
288 567 323 635 325 633 2 -2 40 -75 85 -163z"/>
</g>
</svg>
